<svg width="118" height="48" viewBox="0 0 118 48" fill="none" xmlns="http://www.w3.org/2000/svg">
<path d="M23.8569 22.526C23.5989 17.0232 19.6257 15.0092 15.3926 15.0332C10.8315 15.0581 7.19875 17.3914 6.58594 22.6238L23.8569 22.526ZM6.47853 26.5261C6.82761 31.8515 10.5141 34.9788 15.5662 34.951C19.0647 34.9309 22.169 33.4895 23.1923 30.3832L29.2398 30.3496C28.1015 36.6485 21.4229 38.8216 15.6745 38.8523C5.20975 38.9108 0.541256 33.1768 0.4981 25.403C0.450149 16.8419 5.21358 11.1885 15.617 11.129C23.8914 11.083 29.9811 15.3804 30.0339 24.8343L30.0435 26.3927L6.47853 26.5261Z" fill="#E53238"/>
<path d="M45.1365 34.6767C50.5914 34.646 54.2884 30.6987 54.2548 24.7797C54.2213 18.8606 50.4696 14.9536 45.0272 14.9843C39.5848 15.015 35.8753 18.9623 35.9079 24.8813C35.9405 30.8004 39.719 34.7065 45.1365 34.6767ZM29.8958 0.727549L35.7612 0.694942L35.8427 15.4341C38.6986 11.9931 42.6517 10.9746 46.552 10.9516C53.0896 10.9161 60.3734 15.2845 60.4271 24.8132C60.4702 32.7635 54.7295 38.6298 46.5961 38.6749C42.316 38.6998 38.3256 37.1932 35.8379 34.1857C35.8443 35.3809 35.7834 36.5755 35.6557 37.7638L29.9073 37.7964C29.9936 35.9599 30.0847 33.6113 30.0742 31.7335L29.8958 0.727549Z" fill="#0064D2"/>
<path d="M74.6148 25.3695C69.2941 25.5766 65.998 26.5481 66.0172 30.0524C66.0296 32.3204 67.8777 34.7698 72.4426 34.7429C78.5947 34.7093 81.8659 31.3326 81.8352 25.8346V25.2237C79.6755 25.2429 77.0027 25.2755 74.6148 25.3695ZM87.737 32.5679C87.7466 34.273 87.8051 35.9609 87.9595 37.4588L82.5046 37.4895C82.3625 36.2719 82.2904 35.0472 82.2888 33.8213C79.3619 37.4655 75.8557 38.5291 70.9887 38.5569C63.7654 38.5972 59.8785 34.8024 59.8536 30.388C59.8181 23.9962 65.0649 21.7099 74.1947 21.4519C76.6881 21.3828 79.4971 21.356 81.8141 21.3406V20.7298C81.7892 16.4497 79.0329 14.7023 74.282 14.7292C70.7528 14.7493 68.175 16.2262 67.9016 18.7571L61.7313 18.7906C62.3499 12.4937 68.9527 10.8605 74.7692 10.8308C81.7345 10.7924 87.6257 13.236 87.666 20.6051L87.737 32.5679Z" fill="#F5AF02"/>
<path d="M88.671 19.7381L84.3555 11.7188L91.2163 11.6805L101.371 31.745L111.276 11.5865L117.496 11.5405L99.5559 47.2648L92.9866 47.3022L98.148 37.3783L88.6662 19.7391" fill="#86B817"/>
</svg>
